<svg xmlns="http://www.w3.org/2000/svg">
    <!-- マーク・文字付きロゴ -->
    <symbol viewBox="0 0 275 50" id="svg_logoFooter">
    <path d="M31.0656 23.6184C29.8097 23.6184 28.7902 22.5989 28.7902 21.343V4.33652C28.7902 4.15183 28.7828 3.97452 28.7606 3.78983C28.7606 3.78983 28.7311 3.46477 28.6572 3.15449C28.4429 2.20147 27.8963 1.38883 27.8741 1.35927C27.5121 0.82736 27.0762 0.37671 26.5591 0.00732422H49.6678C51.1675 0.00732422 52.3791 1.21891 52.3791 2.71861V20.9072C52.3791 22.4069 51.1675 23.6184 49.6678 23.6184H31.0656Z"/>
    <path d="M4.95715 49.9926C3.45006 49.9926 2.23109 48.7737 2.23109 47.2666V4.33658C2.23109 4.15189 2.2237 3.97459 2.20154 3.78989C2.20154 3.78989 2.17199 3.46484 2.09811 3.15455C1.88387 2.20154 1.33718 1.38889 1.31501 1.35934C0.953014 0.820036 0.51714 0.369385 0 0H23.094C24.6011 0 25.82 1.21897 25.82 2.72606V47.2592C25.82 48.7663 24.6011 49.9852 23.094 49.9852H4.95715V49.9926Z"/>
    <path d="M31.5234 49.9925C30.0163 49.9925 28.7974 48.7735 28.7974 47.2664V24.3645C29.1667 24.8743 29.6174 25.3175 30.1493 25.6795C30.1863 25.7017 30.9915 26.241 31.9519 26.4626C32.2696 26.5365 32.5873 26.566 32.5873 26.566C32.7646 26.5808 32.9493 26.5956 33.1339 26.5956H50.1183C51.3742 26.5956 52.3937 27.6151 52.3937 28.871V47.2738C52.3937 48.7809 51.1747 49.9999 49.6676 49.9999H31.5308L31.5234 49.9925Z"/>
    <path d="M87.6919 15.2185H79.7353C78.7528 15.2185 78.0953 15.4549 77.7554 15.9351C77.6151 16.142 77.4599 16.4375 77.2752 16.8216L69.4147 34.9732C68.8015 36.34 69.1044 37.027 70.3382 37.027H77.9549C79.1148 37.027 79.8905 36.8349 80.282 36.4434C80.5332 36.1922 80.7696 35.8154 80.9986 35.3131L88.7262 17.4718C89.4132 15.9868 89.066 15.2407 87.6993 15.2185H87.6919Z"/>
    <path d="M111.857 15.2185H101.803C100.82 15.2185 100.162 15.4475 99.8226 15.9056C99.6822 16.1124 99.5271 16.4079 99.3424 16.7921L86.3179 46.8083H97.8722C99.0321 46.8083 99.8078 46.6163 100.199 46.2247C100.451 45.9735 100.687 45.5894 100.916 45.0648L112.884 17.4791C113.571 15.9942 113.224 15.2481 111.857 15.2259V15.2185Z"/>
    <path d="M152.733 15.2185H118.521C117.538 15.2185 116.881 15.4549 116.541 15.9351C116.408 16.142 116.246 16.4375 116.061 16.8216L108.2 34.9732C107.587 36.34 107.89 37.027 109.124 37.027H116.741C117.9 37.027 118.676 36.8349 119.068 36.4434C119.319 36.1922 119.555 35.8154 119.784 35.3131L124.195 25.1624H136.54L134.892 28.967L126.662 29.004C126.086 29.004 125.561 29.3438 125.325 29.8683L123.064 34.8698C122.651 35.7785 122.776 36.4212 123.441 36.7832C123.692 36.894 123.944 36.9531 124.195 36.9531H131.435L127.165 46.801H138.778C139.938 46.801 140.714 46.6089 141.105 46.2173C141.356 45.9661 141.593 45.582 141.822 45.0575L153.79 17.4718C154.477 15.9868 154.13 15.2407 152.763 15.2185H152.733Z"/>
    <path d="M196.572 15.2185H158.282C157.004 15.2407 156.317 15.9056 156.221 17.2058V29.5137C156.221 30.7179 157.816 31.6044 158.422 31.6044H164.037C165.647 31.4862 166.475 30.7549 166.527 29.4103V25.3618H179.669L170.361 46.801L182.292 46.8305C183.504 46.8305 184.309 46.631 184.708 46.2395C184.966 45.9809 185.232 45.5894 185.491 45.0575L197.636 17.5235C198.345 16.009 197.991 15.2481 196.572 15.2185Z"/>
    <path d="M230.415 26.9502C230.327 26.4035 229.95 26.1301 229.285 26.1301L197.422 26.1671C197.06 26.1892 196.75 26.2336 196.499 26.3C196.203 26.3887 195.937 26.662 195.715 27.1201L192.738 34.0276C192.553 34.4635 192.502 34.8624 192.568 35.2244C192.731 35.8154 193.159 36.1109 193.868 36.1109C193.868 36.1109 225.407 36.0888 225.695 36.0444C226.308 35.9558 226.788 35.6233 227.128 35.0545L230.238 27.8441C230.371 27.5264 230.43 27.2309 230.408 26.9576L230.415 26.9502Z"/>
    <path d="M272.968 15.2185H239.384C238.423 15.2185 237.773 15.4549 237.441 15.9351C237.308 16.142 237.153 16.4375 236.968 16.8216L229.263 34.9732C228.657 36.34 228.96 37.027 230.164 37.027H237.581C238.719 37.027 239.48 36.8349 239.857 36.4434C240.1 36.1922 240.337 35.8154 240.558 35.3131L244.88 25.1624H257.04L247.761 46.801H259.316C260.358 46.7714 261.067 46.5867 261.429 46.2173C261.673 45.9661 261.909 45.582 262.131 45.0575L273.855 17.4718C274.527 15.9868 274.224 15.2407 272.954 15.2185H272.968Z"/>
    <path d="M94.437 2.06093C97.0375 1.65461 98.781 1.44775 99.6675 1.44775C100.65 1.44775 101.418 1.67677 101.958 2.12742C102.6 2.66673 102.925 3.4646 102.925 4.53582C102.925 5.37063 102.652 6.09462 102.12 6.71519C101.3 7.66082 99.6232 8.23706 97.0818 8.44391L96.7272 7.40964C98.4411 7.26927 99.6601 7.02547 100.384 6.67086C100.768 6.47878 101.086 6.2276 101.33 5.91732C101.662 5.49622 101.832 5.01602 101.832 4.46194C101.832 3.78966 101.677 3.28729 101.367 2.96962C101.212 2.80709 101.034 2.6815 100.842 2.60024C100.576 2.48203 100.207 2.43032 99.7192 2.43032C98.9213 2.43032 97.237 2.65195 94.666 3.09521L94.4444 2.06832L94.437 2.06093Z"/>
    <path d="M107.144 1.81725H108.939C109.094 1.27795 109.227 0.797745 109.323 0.384033L110.35 0.509624C110.225 0.967662 110.099 1.40354 109.966 1.80986H111.68V2.75549H109.663C109.102 4.35862 108.444 5.71796 107.691 6.82611L106.819 6.33114C107.528 5.2747 108.134 4.08527 108.621 2.75549H107.144V1.80986V1.81725ZM112.175 3.61246H113.239V6.18338C113.97 6.50844 114.716 6.92954 115.485 7.46146L114.945 8.34059C114.406 7.94905 113.837 7.57966 113.239 7.23983C113.202 7.7939 113.025 8.215 112.699 8.5179C112.337 8.84296 111.828 9.01288 111.178 9.01288C110.527 9.01288 110.025 8.87251 109.619 8.58439C109.22 8.29627 109.02 7.90472 109.02 7.39497C109.02 6.86305 109.272 6.43457 109.774 6.10951C110.165 5.85833 110.668 5.73273 111.274 5.73273C111.554 5.73273 111.857 5.76967 112.182 5.83616V3.61985L112.175 3.61246ZM112.175 6.78918C111.806 6.66358 111.451 6.5971 111.118 6.5971C110.786 6.5971 110.535 6.6562 110.335 6.76701C110.084 6.91477 109.951 7.11424 109.951 7.36542C109.951 7.66831 110.136 7.89733 110.498 8.0377C110.683 8.10419 110.897 8.14113 111.148 8.14113C111.554 8.14113 111.85 7.97121 112.027 7.62399C112.123 7.43929 112.175 7.22505 112.175 6.97387V6.78179V6.78918ZM114.975 4.10005C114.28 3.32434 113.483 2.62251 112.581 1.98717L113.202 1.31488C114.096 1.89113 114.908 2.56341 115.647 3.33912L114.975 4.10005Z"/>
    <path d="M125.436 9.10871C124.202 8.15569 122.348 6.92195 119.866 5.42963L119.836 5.40746C119.445 5.17106 119.252 4.91988 119.252 4.64653C119.252 4.46184 119.334 4.28453 119.496 4.122C119.585 4.04074 119.858 3.86343 120.331 3.60486C121.543 2.93997 122.865 2.11255 124.306 1.12998C124.594 0.930514 124.904 0.708882 125.229 0.465088L125.842 1.27035C124.239 2.40067 122.592 3.44233 120.885 4.39535C120.723 4.49139 120.634 4.56527 120.634 4.63176C120.634 4.69824 120.73 4.77951 120.922 4.89771C123.146 6.19795 124.86 7.29133 126.057 8.17786L125.443 9.11609L125.436 9.10871ZM125.177 4.88294C124.971 4.37319 124.653 3.81172 124.232 3.21332L124.963 2.94736C125.34 3.47927 125.658 4.03335 125.909 4.60959L125.17 4.88294H125.177ZM126.5 4.28453C126.263 3.69352 125.953 3.12466 125.569 2.58536L126.256 2.33418C126.611 2.77005 126.928 3.30936 127.202 3.9447L126.5 4.27715V4.28453Z"/>
    <path d="M133.563 9.40432C132.986 8.56212 132.329 7.77903 131.605 7.06242L132.366 6.39014C133.127 7.10674 133.792 7.87507 134.368 8.68033L133.57 9.40432H133.563Z"/>
    <path d="M145.73 6.98858C146.735 7.53527 147.932 7.96376 149.321 8.25926L148.685 9.28615C147.23 8.85028 145.944 8.28881 144.844 7.59437C143.566 8.40702 142.221 8.99803 140.795 9.36003L140.197 8.39963C141.593 8.10412 142.849 7.6387 143.965 6.98858C143.048 6.29413 142.302 5.5332 141.741 4.71316H140.832V3.78231H144.223V2.45252H140.367V1.5069H144.223V0.221436H145.287V1.51428H149.217V2.45991H145.287V3.7897H147.873L148.434 4.35855C147.555 5.45932 146.654 6.33846 145.738 6.99597L145.73 6.98858ZM144.829 6.4345C145.745 5.79916 146.41 5.2303 146.824 4.72055H142.967C143.484 5.36328 144.105 5.93214 144.829 6.4345Z"/>
    <path d="M153.568 2.77025H158.865L159.286 3.4647L159.094 3.60506C157.875 4.52114 157.01 5.20081 156.501 5.63668C156.855 5.46677 157.158 5.37811 157.402 5.37811C157.72 5.37811 157.941 5.48893 158.074 5.70317C158.156 5.82876 158.193 5.96913 158.193 6.14644C158.193 6.19815 158.193 6.27942 158.178 6.37546C158.126 6.85566 158.104 7.21027 158.104 7.44667C158.104 7.68308 158.193 7.81606 158.37 7.86038C158.51 7.89732 158.769 7.9121 159.153 7.9121C159.648 7.9121 160.187 7.87516 160.771 7.80867L160.859 8.80601C160.268 8.85773 159.663 8.87989 159.035 8.87989C158.362 8.87989 157.904 8.83556 157.668 8.74691C157.276 8.59916 157.077 8.26671 157.077 7.74957C157.077 7.23243 157.099 6.84827 157.143 6.52321C157.143 6.50105 157.143 6.4715 157.143 6.44194C157.143 6.22031 157.033 6.11689 156.811 6.11689C156.213 6.11689 155.023 7.0699 153.235 8.98332L152.497 8.17806C154.299 6.45672 155.998 4.9644 157.587 3.71588H153.56V2.77025H153.568ZM158.525 2.24573C157.321 1.87634 155.961 1.55867 154.454 1.28532L154.757 0.413574C156.25 0.642593 157.616 0.952877 158.85 1.33704L158.518 2.24573H158.525Z"/>
    <path d="M164.813 0.738345H170.073L170.575 1.51405C168.95 2.51139 167.539 3.4127 166.349 4.22534C167.118 3.90028 167.893 3.74514 168.662 3.74514C169.356 3.74514 169.94 3.85596 170.405 4.07759C170.834 4.28444 171.173 4.56518 171.417 4.91979C171.668 5.29656 171.794 5.73244 171.794 6.22003C171.794 6.90708 171.558 7.48332 171.092 7.94875C170.767 8.27381 170.361 8.5176 169.851 8.68013C169.193 8.89438 168.469 9.00519 167.686 9.00519C166.785 9.00519 166.113 8.83527 165.684 8.50283C165.352 8.23687 165.182 7.88226 165.182 7.439C165.182 7.09916 165.3 6.80365 165.544 6.5377C165.913 6.13876 166.408 5.93929 167.044 5.93929C167.709 5.93929 168.24 6.16092 168.639 6.61157C168.928 6.93663 169.142 7.37251 169.267 7.9192C170.228 7.6163 170.715 7.04745 170.715 6.22003C170.715 5.59207 170.457 5.13403 169.932 4.83852C169.585 4.63906 169.134 4.53563 168.602 4.53563C167.797 4.53563 167.073 4.64644 166.423 4.86807C165.943 5.0306 165.3 5.42215 164.495 6.04272L163.837 5.24485C164.709 4.4913 165.699 3.73037 166.807 2.96205C167.576 2.43013 168.248 1.99426 168.831 1.65442H164.805V0.730957L164.813 0.738345ZM168.366 8.11128C168.144 7.22475 167.709 6.78149 167.058 6.78149C166.696 6.78149 166.438 6.89231 166.283 7.12133C166.209 7.22475 166.172 7.33557 166.172 7.45377C166.172 7.69757 166.349 7.88965 166.696 8.01524C166.948 8.10389 167.287 8.14822 167.716 8.14822C167.901 8.14822 168.115 8.13344 168.373 8.11128H168.366Z"/>
    <path d="M177.357 9.40432C176.78 8.56212 176.123 7.77903 175.399 7.06242L176.16 6.39014C176.913 7.10674 177.586 7.87507 178.162 8.68033L177.364 9.40432H177.357Z"/>
    <path d="M182.233 2.06093C184.833 1.65461 186.577 1.44775 187.463 1.44775C188.446 1.44775 189.214 1.67677 189.761 2.12742C190.404 2.66673 190.729 3.4646 190.729 4.53582C190.729 5.37063 190.463 6.09462 189.924 6.71519C189.103 7.66082 187.426 8.23706 184.885 8.44391L184.53 7.40964C186.244 7.26927 187.463 7.02547 188.187 6.67086C188.572 6.47878 188.889 6.2276 189.133 5.91732C189.465 5.49622 189.635 5.01602 189.635 4.46194C189.635 3.78966 189.48 3.28729 189.17 2.96962C189.015 2.80709 188.838 2.6815 188.653 2.60024C188.387 2.48203 188.017 2.43032 187.53 2.43032C186.732 2.43032 185.048 2.65195 182.477 3.09521L182.255 2.06832L182.233 2.06093Z"/>
    <path d="M195.449 1.51424H198.293C198.19 1.22612 198.079 0.878893 197.961 0.479957L198.995 0.420855C199.121 0.834567 199.239 1.20395 199.35 1.51424H201.396V2.42292H199.675C199.852 2.86619 200.059 3.31684 200.281 3.77487H203.251V4.68356H200.754C201.079 5.2598 201.411 5.76956 201.743 6.22021L200.694 6.5231C200.332 6.00596 199.97 5.39278 199.601 4.68356H195.287V3.77487H199.173C198.995 3.38333 198.803 2.93268 198.618 2.42292H195.457V1.51424H195.449ZM201.699 8.86501C201.101 8.90933 200.539 8.9315 200.022 8.9315C198.67 8.9315 197.688 8.8059 197.082 8.55472C196.24 8.20011 195.819 7.64603 195.819 6.87771C195.819 6.44923 195.937 6.102 196.173 5.84343L197.015 6.30147C196.919 6.50094 196.868 6.69302 196.868 6.8851C196.868 7.27665 197.134 7.56477 197.673 7.74207C198.153 7.89722 198.884 7.97848 199.867 7.97848C200.362 7.97848 200.946 7.94893 201.61 7.89722L201.692 8.86501H201.699ZM202.069 2.08309C201.869 1.60289 201.559 1.04142 201.138 0.383917L201.862 0.110571C202.268 0.679425 202.578 1.24089 202.807 1.78758L202.076 2.08309H202.069ZM203.443 1.94272C203.221 1.35909 202.911 0.797628 202.512 0.250938L203.214 -0.000244141C203.576 0.443018 203.886 0.982321 204.144 1.61028L203.443 1.93534V1.94272Z"/>
    <path d="M211.828 7.91904C213.66 7.45362 214.584 6.40456 214.584 4.76449C214.584 4.04788 214.399 3.4347 214.03 2.91756C213.616 2.33393 212.988 1.96455 212.146 1.79463C211.961 3.24262 211.71 4.43204 211.392 5.35551C211.171 6.00562 210.897 6.61142 210.572 7.18766C210.107 8.00769 209.568 8.41402 208.977 8.41402C208.533 8.41402 208.134 8.21455 207.787 7.81561C207.566 7.56443 207.388 7.25415 207.248 6.88476C207.063 6.40456 206.975 5.89481 206.975 5.34073C206.975 4.44682 207.218 3.62678 207.713 2.88062C208.208 2.1123 208.851 1.55822 209.649 1.211C210.225 0.95982 210.861 0.834229 211.555 0.834229C212.634 0.834229 213.55 1.12235 214.303 1.69859C215.227 2.40781 215.692 3.41254 215.692 4.71278C215.692 6.89215 214.591 8.27365 212.39 8.85728L211.836 7.91165L211.828 7.91904ZM211.126 1.75769C210.572 1.81679 210.107 1.97194 209.738 2.20095C209.501 2.3561 209.265 2.55556 209.028 2.81413C208.378 3.53074 208.053 4.36555 208.053 5.31118C208.053 6.00562 208.194 6.54493 208.467 6.93648C208.637 7.18027 208.807 7.29847 208.969 7.29847C209.191 7.29847 209.45 7.04729 209.73 6.55231C210.417 5.34073 210.883 3.74499 211.126 1.75769Z"/>
    <path d="M225.798 6.25719C225.591 6.82605 225.333 7.32102 225.015 7.74951C224.616 8.2962 224.069 8.78379 223.382 9.20489L222.725 8.62865C223.73 8.06718 224.461 7.2767 224.934 6.25719H224.284C223.693 7.38013 222.769 8.2371 221.528 8.81334L220.937 8.20016C222.023 7.71257 222.836 7.06245 223.382 6.25719H222.754C222.474 6.54531 222.186 6.78172 221.883 6.96641L221.358 6.45666C220.59 6.92209 219.755 7.3358 218.839 7.70518L218.492 6.75217C218.883 6.63397 219.312 6.48621 219.755 6.30152V3.14697H218.654V2.21612H219.755V0.221436H220.723V2.21612H221.646V3.14697H220.723V5.88042C220.959 5.7696 221.255 5.62185 221.602 5.45193L221.728 6.05034C222.104 5.74744 222.422 5.39283 222.673 4.97912H221.343V4.18863H227.778V4.97912H223.678C223.589 5.13426 223.486 5.31157 223.353 5.50365H227.416C227.35 7.11417 227.231 8.18539 227.061 8.70991C226.98 8.96848 226.832 9.14579 226.633 9.22705C226.493 9.29354 226.278 9.32309 225.998 9.32309C225.673 9.32309 225.355 9.30093 225.045 9.24922L224.875 8.3553C225.17 8.42179 225.458 8.45873 225.754 8.45873C225.961 8.45873 226.101 8.39224 226.16 8.25187C226.278 7.97853 226.367 7.30625 226.441 6.24242H225.806L225.798 6.25719ZM226.906 0.494781V3.72321H222.075V0.494781H226.906ZM223.02 1.21139V1.77285H225.968V1.21139H223.02ZM223.02 2.44514V3.02138H225.968V2.44514H223.02Z"/>
    <path d="M234.752 2.56316V6.11665H233.784V5.59951H232.085C232.085 6.33089 232.041 6.95885 231.952 7.48337C231.841 8.13349 231.62 8.7319 231.287 9.2712L230.482 8.58414C230.792 8.01529 230.984 7.36517 231.058 6.63379C231.103 6.22007 231.125 5.7251 231.125 5.14147V2.55577H234.759L234.752 2.56316ZM230.8 0.620191H235.136V1.5141H230.8V0.620191ZM233.784 3.39058H232.092V4.7647H233.784V3.39058ZM236.37 4.25494C236.37 5.17102 236.296 5.96889 236.17 6.65595C236.037 7.37256 235.823 8.00051 235.52 8.53981C235.38 8.79838 235.188 9.07173 234.944 9.36724L234.176 8.64324C234.715 7.95619 235.062 7.1066 235.225 6.07971C235.321 5.44436 235.373 4.65388 235.373 3.72303V0.930475L235.587 0.908312C236.828 0.775333 237.899 0.538926 238.8 0.213867L239.436 1.01913C238.461 1.35896 237.441 1.58059 236.377 1.69141V3.3167H239.739V4.26233H238.594V9.35246H237.582V4.26233H236.37V4.25494Z"/>
    <path d="M242.539 1.35933C245.413 1.315 248.132 1.24112 250.695 1.1377L250.754 2.06855C249.624 2.12765 248.745 2.29757 248.117 2.58569C247.518 2.85903 247.038 3.24319 246.669 3.73078C246.255 4.28486 246.048 4.89804 246.048 5.57771C246.048 6.25738 246.285 6.75974 246.75 7.09958C247.289 7.48374 248.117 7.7497 249.225 7.89006L249.003 8.9465C247.555 8.75442 246.536 8.37765 245.945 7.82357C245.309 7.23256 244.992 6.49378 244.992 5.60726C244.992 4.80939 245.28 4.06323 245.856 3.36878C246.277 2.85903 246.846 2.45271 247.577 2.14242C246.285 2.18675 244.622 2.26063 242.583 2.36406L242.539 1.36671V1.35933ZM249.358 5.40779C249.173 4.9202 248.863 4.35874 248.427 3.73817L249.158 3.46482C249.55 4.00413 249.868 4.55082 250.104 5.11228L249.365 5.4004L249.358 5.40779ZM250.621 4.91282C250.4 4.33657 250.089 3.77511 249.69 3.23581L250.392 2.98462C250.762 3.42789 251.072 3.96719 251.323 4.59514L250.621 4.91282Z"/>
    <path d="M255.349 6.02808C255.6 6.02808 255.836 6.08718 256.073 6.20538C256.331 6.33097 256.538 6.52305 256.693 6.76685C256.871 7.04019 256.959 7.3357 256.959 7.64598C256.959 8.02276 256.834 8.36259 256.59 8.66549C256.265 9.06442 255.851 9.26389 255.341 9.26389C255.142 9.26389 254.95 9.22695 254.765 9.15308C254.484 9.04226 254.255 8.86496 254.071 8.62855C253.849 8.33304 253.731 8.00798 253.731 7.6386C253.731 7.41697 253.783 7.20272 253.879 6.98848C254.086 6.53044 254.433 6.22754 254.913 6.09457C255.061 6.05024 255.201 6.03546 255.349 6.03546V6.02808ZM255.341 6.76685C255.127 6.76685 254.943 6.84072 254.773 6.99587C254.573 7.16578 254.477 7.38003 254.477 7.64598C254.477 7.74941 254.499 7.85284 254.536 7.94888C254.595 8.09663 254.691 8.22223 254.817 8.31827C254.979 8.45124 255.157 8.51773 255.364 8.51773C255.519 8.51773 255.667 8.47341 255.807 8.38476C256.088 8.20745 256.228 7.96366 256.228 7.64598C256.228 7.50562 256.191 7.37264 256.125 7.23966C255.955 6.92199 255.696 6.76685 255.349 6.76685H255.341Z"/>
    <path d="M200.406 49.8151H199.631C199.483 49.8151 199.38 49.756 199.313 49.6452L198.345 48.1676C198.308 48.1085 198.271 48.0716 198.227 48.0494C198.183 48.0272 198.116 48.0125 198.035 48.0125H197.666V49.8151H196.809V45.1978H198.22C198.53 45.1978 198.803 45.2273 199.025 45.2938C199.247 45.3603 199.431 45.4489 199.579 45.5671C199.719 45.6853 199.83 45.8257 199.897 45.9882C199.963 46.1508 200 46.3281 200 46.5275C200 46.6827 199.978 46.8304 199.934 46.9708C199.889 47.1112 199.823 47.2368 199.734 47.3476C199.645 47.4584 199.542 47.5618 199.416 47.6431C199.291 47.7317 199.143 47.7982 198.981 47.8426C199.04 47.8721 199.084 47.909 199.136 47.9534C199.18 47.9977 199.224 48.0494 199.261 48.1085L200.421 49.8151H200.406ZM198.197 47.3919C198.36 47.3919 198.5 47.3697 198.619 47.3328C198.737 47.2959 198.84 47.2368 198.914 47.1629C198.995 47.089 199.047 47.0077 199.091 46.9117C199.136 46.8157 199.151 46.7048 199.151 46.5866C199.151 46.3502 199.077 46.1729 198.921 46.0473C198.766 45.9218 198.53 45.8553 198.212 45.8553H197.666V47.3845H198.205L198.197 47.3919Z"/>
    <path d="M203.066 49.8151H202.202V45.1978H203.066V49.8151Z"/>
    <path d="M208.415 45.907H207.026V49.8225H206.169V45.907H204.78V45.1978H208.422V45.907H208.415Z"/>
    <path d="M213.66 49.8154H212.995C212.921 49.8154 212.862 49.7932 212.81 49.7563C212.766 49.7193 212.729 49.675 212.707 49.6159L212.36 48.6703H210.446L210.099 49.6159C210.084 49.6676 210.047 49.712 210.003 49.7489C209.951 49.7858 209.892 49.808 209.818 49.808H209.146L210.963 45.1907H211.835L213.645 49.808L213.66 49.8154ZM212.145 48.0719L211.584 46.5352C211.554 46.4688 211.525 46.3875 211.495 46.2914C211.466 46.1954 211.436 46.0994 211.407 45.9885C211.377 46.0994 211.348 46.1954 211.318 46.2914C211.288 46.3875 211.259 46.4688 211.229 46.5352L210.668 48.0645H212.138L212.145 48.0719Z"/>
    <path d="M221.306 45.1981L219.873 49.8154H219.097L218.085 46.6608C218.056 46.587 218.034 46.4909 218.011 46.3801C217.997 46.4318 217.982 46.4835 217.974 46.5279C217.96 46.5722 217.945 46.6165 217.93 46.6608L216.911 49.8154H216.135L214.702 45.1981H215.418C215.492 45.1981 215.551 45.2128 215.603 45.2498C215.655 45.2867 215.684 45.331 215.706 45.3901L216.489 48.1531C216.504 48.2196 216.526 48.2935 216.541 48.3748C216.556 48.456 216.571 48.5373 216.593 48.626C216.608 48.5373 216.63 48.456 216.652 48.3748C216.674 48.2935 216.696 48.2196 216.719 48.1531L217.627 45.3901C217.642 45.3384 217.679 45.2941 217.731 45.2572C217.782 45.2202 217.841 45.1981 217.915 45.1981H218.166C218.24 45.1981 218.299 45.2128 218.351 45.2498C218.396 45.2867 218.432 45.331 218.455 45.3901L219.356 48.1531C219.4 48.2861 219.445 48.4339 219.474 48.6112C219.504 48.4413 219.533 48.2935 219.57 48.1531L220.353 45.3901C220.368 45.3384 220.398 45.2941 220.449 45.2498C220.501 45.2128 220.56 45.1907 220.634 45.1907H221.306V45.1981Z"/>
    <path d="M227.327 47.5105C227.327 47.8503 227.268 48.1606 227.157 48.4487C227.047 48.7368 226.884 48.988 226.685 49.1949C226.485 49.4017 226.234 49.5717 225.946 49.6899C225.658 49.8081 225.34 49.8672 224.985 49.8672C224.631 49.8672 224.321 49.8081 224.032 49.6899C223.744 49.5717 223.501 49.4091 223.294 49.1949C223.087 48.9806 222.932 48.7368 222.813 48.4487C222.703 48.1606 222.644 47.8429 222.644 47.5105C222.644 47.178 222.703 46.8604 222.813 46.5723C222.924 46.2841 223.087 46.0329 223.294 45.8261C223.501 45.6192 223.744 45.4493 224.032 45.3311C224.321 45.2129 224.638 45.1538 224.985 45.1538C225.222 45.1538 225.443 45.1834 225.643 45.2351C225.85 45.2868 226.042 45.3681 226.212 45.4641C226.382 45.5601 226.537 45.6857 226.677 45.8261C226.818 45.9665 226.928 46.129 227.024 46.2989C227.121 46.4688 227.194 46.6609 227.246 46.8678C227.298 47.0746 227.32 47.2889 227.32 47.5105H227.327ZM226.448 47.5105C226.448 47.2593 226.411 47.0303 226.345 46.8308C226.278 46.6314 226.182 46.4614 226.057 46.3211C225.931 46.1807 225.776 46.0699 225.599 45.996C225.421 45.9221 225.214 45.8852 224.993 45.8852C224.771 45.8852 224.564 45.9221 224.387 45.996C224.21 46.0699 224.055 46.1807 223.929 46.3211C223.803 46.4614 223.707 46.6314 223.634 46.8308C223.567 47.0303 223.53 47.2593 223.53 47.5105C223.53 47.7617 223.567 47.9907 223.634 48.1902C223.7 48.3896 223.796 48.5595 223.929 48.6999C224.062 48.8403 224.21 48.9437 224.387 49.0176C224.564 49.0915 224.771 49.1284 224.993 49.1284C225.214 49.1284 225.421 49.0915 225.599 49.0176C225.776 48.9437 225.931 48.8329 226.057 48.6999C226.182 48.5595 226.278 48.3896 226.345 48.1902C226.411 47.9907 226.448 47.7617 226.448 47.5105Z"/>
    <path d="M232.891 49.8151H232.115C231.967 49.8151 231.864 49.756 231.797 49.6452L230.83 48.1676C230.793 48.1085 230.756 48.0716 230.711 48.0494C230.667 48.0272 230.601 48.0125 230.519 48.0125H230.15V49.8151H229.293V45.1978H230.704C231.014 45.1978 231.288 45.2273 231.509 45.2938C231.731 45.3603 231.916 45.4489 232.063 45.5671C232.204 45.6853 232.315 45.8257 232.381 45.9882C232.448 46.1508 232.484 46.3281 232.484 46.5275C232.484 46.6827 232.462 46.8304 232.418 46.9708C232.374 47.1112 232.307 47.2368 232.218 47.3476C232.13 47.4584 232.026 47.5618 231.901 47.6431C231.775 47.7317 231.627 47.7982 231.465 47.8426C231.524 47.8721 231.568 47.909 231.62 47.9534C231.664 47.9977 231.709 48.0494 231.746 48.1085L232.906 49.8151H232.891ZM230.682 47.3919C230.844 47.3919 230.985 47.3697 231.103 47.3328C231.221 47.2959 231.325 47.2368 231.398 47.1629C231.48 47.089 231.531 47.0077 231.576 46.9117C231.62 46.8157 231.635 46.7048 231.635 46.5866C231.635 46.3502 231.561 46.1729 231.406 46.0473C231.251 45.9218 231.014 45.8553 230.697 45.8553H230.15V47.3845H230.689L230.682 47.3919Z"/>
    <path d="M235.417 47.1335H235.616C235.697 47.1335 235.764 47.1187 235.816 47.0966C235.867 47.0744 235.912 47.0375 235.956 46.9931L237.227 45.3826C237.278 45.3161 237.337 45.2644 237.397 45.2423C237.456 45.2127 237.53 45.2053 237.618 45.2053H238.357L236.798 47.1261C236.71 47.2443 236.613 47.3256 236.51 47.3773C236.577 47.3995 236.643 47.4364 236.702 47.4807C236.761 47.5251 236.813 47.5842 236.865 47.658L238.468 49.8226H237.707C237.603 49.8226 237.53 49.8079 237.478 49.7783C237.426 49.7488 237.389 49.7044 237.352 49.6527L236.045 47.9462C236.008 47.8871 235.956 47.8501 235.904 47.828C235.853 47.8058 235.771 47.791 235.675 47.791H235.402V49.8226H234.545V45.2053H235.402V47.1409L235.417 47.1335Z"/>
    </symbol>
      
    <!-- 文字付きロゴ -->
    <symbol viewBox="0 0 297 72" id="svg_logoHero">
      <path d="M26.833 21.9733H15.345C13.9263 21.9733 12.977 22.3147 12.4863 23.008C12.2837 23.3067 12.0597 23.7333 11.793 24.288L0.443656 50.5067C-0.441679 52.48 -0.00434495 53.472 1.77699 53.472H12.7743C14.449 53.472 15.569 53.1947 16.1343 52.6293C16.497 52.2667 16.8383 51.7227 17.169 50.9973L28.3264 25.2373C29.3184 23.0933 28.817 22.016 26.8437 21.984L26.833 21.9733Z" />
    <path d="M61.7239 21.9733H47.2065C45.7878 21.9733 44.8385 22.304 44.3478 22.9653C44.1452 23.264 43.9212 23.6907 43.6545 24.2453L24.8491 67.584H41.5318C43.2065 67.584 44.3265 67.3067 44.8918 66.7413C45.2545 66.3787 45.5958 65.824 45.9265 65.0667L63.2065 25.2373C64.1985 23.0933 63.6972 22.016 61.7239 21.984V21.9733Z" />
    <path d="M120.743 21.9733H71.3455C69.9268 21.9733 68.9775 22.3147 68.4868 23.008C68.2948 23.3067 68.0602 23.7333 67.7935 24.288L56.4441 50.496C55.5588 52.4693 55.9961 53.4613 57.7775 53.4613H68.7748C70.4495 53.4613 71.5695 53.184 72.1348 52.6187C72.4975 52.256 72.8388 51.712 73.1695 50.9867L79.5375 36.3307H97.3615L94.9829 41.824L83.1002 41.8773C82.2682 41.8773 81.5109 42.368 81.1695 43.1253L77.9055 50.3467C77.3082 51.6587 77.4895 52.5867 78.4495 53.1093C78.8122 53.2693 79.1749 53.3547 79.5375 53.3547H89.9909L83.8255 67.5733H100.594C102.268 67.5733 103.388 67.296 103.954 66.7307C104.316 66.368 104.658 65.8133 104.988 65.056L122.268 25.2267C123.26 23.0827 122.759 22.0053 120.786 21.9733H120.743Z" />
    <path d="M184.028 21.9733H128.743C126.897 22.0053 125.905 22.9653 125.767 24.8427V42.6133C125.767 44.352 128.071 45.632 128.945 45.632H137.052C139.377 45.4613 140.572 44.4053 140.647 42.464V36.6187H159.623L146.183 67.5733L163.409 67.616C165.159 67.616 166.321 67.328 166.897 66.7627C167.271 66.3893 167.655 65.824 168.028 65.056L185.564 25.3013C186.588 23.1147 186.076 22.016 184.028 21.9733Z" />
    <path d="M232.892 38.912C232.764 38.1227 232.22 37.728 231.26 37.728L185.255 37.7813C184.732 37.8133 184.284 37.8773 183.921 37.9733C183.495 38.1013 183.111 38.496 182.791 39.1573L178.492 49.1307C178.225 49.76 178.151 50.336 178.247 50.8587C178.481 51.712 179.1 52.1387 180.124 52.1387C180.124 52.1387 225.66 52.1067 226.076 52.0427C226.961 51.9147 227.655 51.4347 228.145 50.6133L232.636 40.2027C232.828 39.744 232.913 39.3173 232.881 38.9227L232.892 38.912Z" />
    <path d="M294.342 21.9733H245.851C244.465 21.9733 243.526 22.3147 243.046 23.008C242.854 23.3067 242.63 23.7333 242.363 24.288L231.238 50.496C230.363 52.4693 230.801 53.4613 232.539 53.4613H243.249C244.891 53.4613 245.99 53.184 246.534 52.6187C246.886 52.256 247.227 51.712 247.547 50.9867L253.787 36.3307H271.345L257.947 67.5733H274.63C276.134 67.5307 277.158 67.264 277.681 66.7307C278.033 66.368 278.374 65.8133 278.694 65.056L295.622 25.2267C296.593 23.0827 296.155 22.0053 294.321 21.9733H294.342Z" />
    <path d="M36.561 2.976C40.3157 2.38933 42.833 2.09067 44.113 2.09067C45.5317 2.09067 46.6411 2.42133 47.4197 3.072C48.3477 3.85067 48.8171 5.00267 48.8171 6.54933C48.8171 7.75467 48.4224 8.8 47.6544 9.696C46.4704 11.0613 44.049 11.8933 40.3797 12.192L39.8677 10.6987C42.3424 10.496 44.1024 10.144 45.1477 9.632C45.7024 9.35467 46.1611 8.992 46.5131 8.544C46.9931 7.936 47.2384 7.24267 47.2384 6.44267C47.2384 5.472 47.0144 4.74667 46.5664 4.288C46.3424 4.05333 46.0864 3.872 45.8091 3.75467C45.4251 3.584 44.8917 3.50933 44.1877 3.50933C43.0357 3.50933 40.6037 3.82933 36.8917 4.46933L36.5717 2.98667L36.561 2.976Z" />
    <path d="M54.9186 2.62401H57.5106C57.7346 1.84534 57.9266 1.15201 58.0652 0.554672L59.5479 0.736006C59.3666 1.39734 59.1852 2.02667 58.9932 2.61334H61.4679V3.97867H58.5559C57.7452 6.29334 56.7959 8.25601 55.7079 9.85601L54.4492 9.14134C55.4732 7.61601 56.3479 5.89867 57.0519 3.97867H54.9186V2.61334V2.62401ZM62.1826 5.21601H63.7186V8.92801C64.7746 9.39734 65.8519 10.0053 66.9612 10.7733L66.1826 12.0427C65.4039 11.4773 64.5826 10.944 63.7186 10.4533C63.6652 11.2533 63.4092 11.8613 62.9399 12.2987C62.4172 12.768 61.6812 13.0133 60.7426 13.0133C59.8039 13.0133 59.0786 12.8107 58.4919 12.3947C57.9159 11.9787 57.6279 11.4133 57.6279 10.6773C57.6279 9.90934 57.9906 9.29068 58.7159 8.82134C59.2812 8.45867 60.0066 8.27734 60.8812 8.27734C61.2866 8.27734 61.7239 8.33067 62.1932 8.42667V5.22667L62.1826 5.21601ZM62.1826 9.80268C61.6492 9.62134 61.1372 9.52534 60.6572 9.52534C60.1772 9.52534 59.8146 9.61067 59.5266 9.77067C59.1639 9.98401 58.9719 10.272 58.9719 10.6347C58.9719 11.072 59.2386 11.4027 59.7612 11.6053C60.0279 11.7013 60.3372 11.7547 60.6999 11.7547C61.2866 11.7547 61.7132 11.5093 61.9692 11.008C62.1079 10.7413 62.1826 10.432 62.1826 10.0693V9.79201V9.80268ZM66.2252 5.92001C65.2226 4.80001 64.0706 3.78667 62.7692 2.86934L63.6652 1.89867C64.9559 2.73067 66.1292 3.70134 67.1959 4.82134L66.2252 5.92001Z" />
    <path d="M81.3294 13.152C79.548 11.776 76.8707 9.99468 73.2867 7.84001L73.244 7.80801C72.6787 7.46668 72.4014 7.10401 72.4014 6.70935C72.4014 6.44268 72.5187 6.18668 72.7534 5.95201C72.8814 5.83468 73.276 5.57868 73.9587 5.20535C75.708 4.24535 77.6174 3.05068 79.6974 1.63201C80.1134 1.34401 80.5614 1.02401 81.0307 0.672012L81.9161 1.83468C79.6014 3.46668 77.2227 4.97068 74.7587 6.34668C74.524 6.48535 74.396 6.59201 74.396 6.68801C74.396 6.78401 74.5347 6.90135 74.812 7.07201C78.0227 8.94935 80.4974 10.528 82.2254 11.808L81.3401 13.1627L81.3294 13.152ZM80.9561 7.05068C80.6574 6.31468 80.1987 5.50401 79.5907 4.64001L80.6467 4.25601C81.1907 5.02401 81.6494 5.82401 82.0121 6.65601L80.9454 7.05068H80.9561ZM82.8654 6.18668C82.5241 5.33335 82.0761 4.51201 81.5214 3.73335L82.5134 3.37068C83.0254 4.00001 83.4841 4.77868 83.8787 5.69601L82.8654 6.17601V6.18668Z" />
    <path d="M93.0615 13.5787C92.2295 12.3627 91.2802 11.232 90.2349 10.1973L91.3335 9.22665C92.4322 10.2613 93.3922 11.3707 94.2242 12.5333L93.0722 13.5787H93.0615Z" />
    <path d="M110.631 10.0907C112.082 10.88 113.81 11.4987 115.815 11.9253L114.898 13.408C112.796 12.7787 110.94 11.968 109.351 10.9653C107.506 12.1387 105.564 12.992 103.506 13.5147L102.642 12.128C104.658 11.7013 106.471 11.0293 108.082 10.0907C106.759 9.08801 105.682 7.98934 104.871 6.80534H103.559V5.46134H108.455V3.54134H102.887V2.17601H108.455V0.320007H109.991V2.18667H115.666V3.55201H109.991V5.47201H113.724L114.535 6.29334C113.266 7.88268 111.964 9.15201 110.642 10.1013L110.631 10.0907ZM109.33 9.29068C110.652 8.37334 111.612 7.55201 112.21 6.81601H106.642C107.388 7.74401 108.284 8.56534 109.33 9.29068Z" />
    <path d="M121.948 4H129.596L130.204 5.00267L129.926 5.20534C128.166 6.528 126.918 7.50934 126.182 8.13867C126.694 7.89334 127.132 7.76534 127.484 7.76534C127.942 7.76534 128.262 7.92534 128.454 8.23467C128.572 8.416 128.625 8.61867 128.625 8.87467C128.625 8.94934 128.625 9.06667 128.604 9.20534C128.529 9.89867 128.497 10.4107 128.497 10.752C128.497 11.0933 128.625 11.2853 128.881 11.3493C129.084 11.4027 129.457 11.424 130.012 11.424C130.726 11.424 131.505 11.3707 132.348 11.2747L132.476 12.7147C131.622 12.7893 130.748 12.8213 129.841 12.8213C128.87 12.8213 128.209 12.7573 127.868 12.6293C127.302 12.416 127.014 11.936 127.014 11.1893C127.014 10.4427 127.046 9.888 127.11 9.41867C127.11 9.38667 127.11 9.344 127.11 9.30134C127.11 8.98134 126.95 8.832 126.63 8.832C125.766 8.832 124.049 10.208 121.468 12.9707L120.401 11.808C123.004 9.32267 125.457 7.168 127.75 5.36534H121.937V4H121.948ZM129.094 3.24267C127.356 2.70934 125.393 2.25067 123.217 1.856L123.654 0.597336C125.809 0.928003 127.782 1.376 129.564 1.93067L129.084 3.24267H129.094Z" />
    <path d="M138.182 1.06668H145.777L146.502 2.18668C144.155 3.62668 142.118 4.92802 140.401 6.10135C141.51 5.63202 142.63 5.40802 143.739 5.40802C144.742 5.40802 145.585 5.56802 146.257 5.88802C146.875 6.18668 147.366 6.59202 147.718 7.10402C148.081 7.64802 148.262 8.27735 148.262 8.98135C148.262 9.97335 147.921 10.8054 147.249 11.4774C146.779 11.9467 146.193 12.2987 145.457 12.5334C144.507 12.8427 143.462 13.0027 142.331 13.0027C141.03 13.0027 140.059 12.7574 139.441 12.2774C138.961 11.8934 138.715 11.3813 138.715 10.7414C138.715 10.2507 138.886 9.82402 139.238 9.44002C139.771 8.86402 140.486 8.57602 141.403 8.57602C142.363 8.57602 143.131 8.89602 143.707 9.54668C144.123 10.016 144.433 10.6454 144.614 11.4347C146.001 10.9974 146.705 10.176 146.705 8.98135C146.705 8.07468 146.331 7.41335 145.574 6.98668C145.073 6.69868 144.422 6.54935 143.654 6.54935C142.491 6.54935 141.446 6.70935 140.507 7.02935C139.814 7.26402 138.886 7.82935 137.723 8.72535L136.774 7.57335C138.033 6.48535 139.462 5.38668 141.062 4.27735C142.171 3.50935 143.142 2.88002 143.985 2.38935H138.171V1.05602L138.182 1.06668ZM143.313 11.712C142.993 10.432 142.363 9.79202 141.425 9.79202C140.902 9.79202 140.529 9.95202 140.305 10.2827C140.198 10.432 140.145 10.592 140.145 10.7627C140.145 11.1147 140.401 11.392 140.902 11.5734C141.265 11.7014 141.755 11.7654 142.374 11.7654C142.641 11.7654 142.95 11.744 143.323 11.712H143.313Z" />
    <path d="M156.293 13.5787C155.461 12.3627 154.512 11.232 153.467 10.1973L154.565 9.22665C155.653 10.2613 156.624 11.3707 157.456 12.5333L156.304 13.5787H156.293Z" />
    <path d="M163.335 2.976C167.09 2.38933 169.607 2.09067 170.887 2.09067C172.306 2.09067 173.415 2.42133 174.204 3.072C175.132 3.85067 175.602 5.00267 175.602 6.54933C175.602 7.75467 175.218 8.8 174.439 9.696C173.255 11.0613 170.834 11.8933 167.164 12.192L166.652 10.6987C169.127 10.496 170.887 10.144 171.932 9.632C172.487 9.35467 172.946 8.992 173.298 8.544C173.778 7.936 174.023 7.24267 174.023 6.44267C174.023 5.472 173.799 4.74667 173.351 4.288C173.127 4.05333 172.871 3.872 172.604 3.75467C172.22 3.584 171.687 3.50933 170.983 3.50933C169.831 3.50933 167.399 3.82933 163.687 4.46933L163.367 2.98667L163.335 2.976Z" />
    <path d="M182.417 2.18667H186.524C186.375 1.77067 186.215 1.26933 186.044 0.693333L187.537 0.608C187.719 1.20533 187.889 1.73867 188.049 2.18667H191.004V3.49867H188.519C188.775 4.13867 189.073 4.78933 189.393 5.45067H193.681V6.76267H190.076C190.545 7.59467 191.025 8.33067 191.505 8.98133L189.991 9.41867C189.468 8.672 188.945 7.78667 188.412 6.76267H182.183V5.45067H187.793C187.537 4.88533 187.26 4.23467 186.993 3.49867H182.428V2.18667H182.417ZM191.441 12.8C190.577 12.864 189.767 12.896 189.02 12.896C187.068 12.896 185.649 12.7147 184.775 12.352C183.559 11.84 182.951 11.04 182.951 9.93067C182.951 9.312 183.121 8.81067 183.463 8.43734L184.679 9.09867C184.54 9.38667 184.465 9.664 184.465 9.94133C184.465 10.5067 184.849 10.9227 185.628 11.1787C186.321 11.4027 187.377 11.52 188.796 11.52C189.511 11.52 190.353 11.4773 191.313 11.4027L191.431 12.8H191.441ZM191.975 3.008C191.687 2.31467 191.239 1.504 190.631 0.554667L191.676 0.16C192.263 0.981333 192.711 1.792 193.041 2.58133L191.985 3.008H191.975ZM193.959 2.80533C193.639 1.96267 193.191 1.152 192.615 0.362667L193.628 0C194.151 0.64 194.599 1.41867 194.972 2.32533L193.959 2.79467V2.80533Z" />
    <path d="M206.066 11.4347C208.711 10.7627 210.044 9.24802 210.044 6.88002C210.044 5.84535 209.778 4.96002 209.244 4.21335C208.647 3.37069 207.74 2.83735 206.524 2.59202C206.258 4.68269 205.895 6.40002 205.436 7.73335C205.116 8.67202 204.722 9.54669 204.252 10.3787C203.58 11.5627 202.802 12.1494 201.948 12.1494C201.308 12.1494 200.732 11.8614 200.231 11.2854C199.911 10.9227 199.655 10.4747 199.452 9.94135C199.186 9.24802 199.058 8.51202 199.058 7.71202C199.058 6.42135 199.41 5.23735 200.124 4.16002C200.839 3.05069 201.767 2.25069 202.919 1.74935C203.751 1.38669 204.668 1.20535 205.671 1.20535C207.228 1.20535 208.551 1.62135 209.639 2.45335C210.972 3.47735 211.644 4.92802 211.644 6.80535C211.644 9.95202 210.055 11.9467 206.876 12.7894L206.076 11.424L206.066 11.4347ZM205.052 2.53869C204.252 2.62402 203.58 2.84802 203.047 3.17869C202.706 3.40269 202.364 3.69069 202.023 4.06402C201.084 5.09869 200.615 6.30402 200.615 7.66935C200.615 8.67202 200.818 9.45069 201.212 10.016C201.458 10.368 201.703 10.5387 201.938 10.5387C202.258 10.5387 202.631 10.176 203.036 9.46136C204.028 7.71202 204.7 5.40802 205.052 2.53869Z" />
    <path d="M226.236 9.03468C225.937 9.85601 225.564 10.5707 225.105 11.1893C224.529 11.9787 223.74 12.6827 222.748 13.2907L221.799 12.4587C223.249 11.648 224.305 10.5067 224.988 9.03468H224.049C223.196 10.656 221.863 11.8933 220.071 12.7253L219.217 11.84C220.785 11.136 221.959 10.1973 222.748 9.03468H221.841C221.436 9.45068 221.02 9.79201 220.583 10.0587L219.825 9.32268C218.716 9.99468 217.511 10.592 216.188 11.1253L215.687 9.74934C216.252 9.57868 216.871 9.36534 217.511 9.09868V4.54401H215.921V3.20001H217.511V0.320007H218.908V3.20001H220.241V4.54401H218.908V8.49068C219.249 8.33068 219.676 8.11734 220.177 7.87201L220.359 8.73601C220.903 8.29868 221.361 7.78668 221.724 7.18934H219.804V6.04801H229.095V7.18934H223.175C223.047 7.41334 222.897 7.66934 222.705 7.94668H228.572C228.476 10.272 228.305 11.8187 228.06 12.576C227.943 12.9493 227.729 13.2053 227.441 13.3227C227.239 13.4187 226.929 13.4613 226.524 13.4613C226.055 13.4613 225.596 13.4293 225.148 13.3547L224.903 12.064C225.329 12.16 225.745 12.2133 226.172 12.2133C226.471 12.2133 226.673 12.1173 226.759 11.9147C226.929 11.52 227.057 10.5493 227.164 9.01334H226.247L226.236 9.03468ZM227.836 0.714674V5.37601H220.86V0.714674H227.836ZM222.215 1.74934V2.56001H226.471V1.74934H222.215ZM222.215 3.53067V4.36268H226.471V3.53067H222.215Z" />
    <path d="M239.163 3.70133V8.83199H237.766V8.08533H235.313C235.313 9.14133 235.249 10.048 235.121 10.8053C234.961 11.744 234.641 12.608 234.161 13.3867L232.998 12.3947C233.446 11.5733 233.723 10.6347 233.83 9.57866C233.894 8.98133 233.926 8.26666 233.926 7.42399V3.69066H239.174L239.163 3.70133ZM233.457 0.895993H239.718V2.18666H233.457V0.895993ZM237.766 4.89599H235.323V6.87999H237.766V4.89599ZM241.499 6.14399C241.499 7.46666 241.393 8.61866 241.211 9.61066C241.019 10.6453 240.71 11.552 240.273 12.3307C240.07 12.704 239.793 13.0987 239.441 13.5253L238.331 12.48C239.11 11.488 239.611 10.2613 239.846 8.77866C239.985 7.86133 240.059 6.71999 240.059 5.37599V1.34399L240.369 1.31199C242.161 1.11999 243.707 0.77866 245.009 0.309326L245.926 1.47199C244.518 1.96266 243.046 2.28266 241.51 2.44266V4.78933H246.363V6.15466H244.71V13.504H243.249V6.15466H241.499V6.14399Z" />
    <path d="M250.408 1.96267C254.557 1.89867 258.482 1.792 262.184 1.64267L262.269 2.98667C260.637 3.072 259.368 3.31734 258.461 3.73334C257.597 4.128 256.904 4.68267 256.37 5.38667C255.773 6.18667 255.474 7.072 255.474 8.05334C255.474 9.03467 255.816 9.76 256.488 10.2507C257.266 10.8053 258.461 11.1893 260.061 11.392L259.741 12.9173C257.65 12.64 256.178 12.096 255.325 11.296C254.408 10.4427 253.949 9.37601 253.949 8.096C253.949 6.944 254.365 5.86667 255.197 4.864C255.805 4.128 256.626 3.54134 257.682 3.09334C255.816 3.15734 253.416 3.264 250.472 3.41334L250.408 1.97334V1.96267ZM260.253 7.808C259.986 7.104 259.538 6.29334 258.909 5.39734L259.965 5.00267C260.53 5.78134 260.989 6.57067 261.33 7.38134L260.264 7.79734L260.253 7.808ZM262.077 7.09334C261.757 6.26134 261.309 5.45067 260.733 4.672L261.746 4.30934C262.28 4.94934 262.728 5.728 263.09 6.63467L262.077 7.09334Z" />
    <path d="M268.903 8.70401C269.266 8.70401 269.607 8.78934 269.948 8.96001C270.322 9.14134 270.62 9.41868 270.844 9.77068C271.1 10.1653 271.228 10.592 271.228 11.04C271.228 11.584 271.047 12.0747 270.695 12.512C270.226 13.088 269.628 13.376 268.892 13.376C268.604 13.376 268.327 13.3227 268.06 13.216C267.655 13.056 267.324 12.8 267.058 12.4587C266.738 12.032 266.567 11.5627 266.567 11.0293C266.567 10.7093 266.642 10.4 266.78 10.0907C267.079 9.42934 267.58 8.99201 268.274 8.80001C268.487 8.73601 268.69 8.71468 268.903 8.71468V8.70401ZM268.882 9.77068C268.572 9.77068 268.306 9.87734 268.06 10.1013C267.772 10.3467 267.634 10.656 267.634 11.04C267.634 11.1893 267.666 11.3387 267.719 11.4773C267.804 11.6907 267.943 11.872 268.124 12.0107C268.359 12.2027 268.615 12.2987 268.914 12.2987C269.138 12.2987 269.351 12.2347 269.554 12.1067C269.959 11.8507 270.162 11.4987 270.162 11.04C270.162 10.8373 270.108 10.6453 270.012 10.4533C269.767 9.99468 269.394 9.77068 268.892 9.77068H268.882Z" />
    <path d="M189.575 71.9253H188.455C188.242 71.9253 188.092 71.84 187.996 71.68L186.599 69.5467C186.546 69.4613 186.492 69.408 186.428 69.376C186.364 69.344 186.268 69.3227 186.151 69.3227H185.618V71.9253H184.38V65.2587H186.418C186.866 65.2587 187.26 65.3013 187.58 65.3973C187.9 65.4933 188.167 65.6213 188.38 65.792C188.583 65.9627 188.743 66.1653 188.839 66.4C188.935 66.6347 188.988 66.8907 188.988 67.1787C188.988 67.4027 188.956 67.616 188.892 67.8187C188.828 68.0213 188.732 68.2027 188.604 68.3627C188.476 68.5227 188.327 68.672 188.146 68.7893C187.964 68.9173 187.751 69.0133 187.516 69.0773C187.602 69.12 187.666 69.1733 187.74 69.2373C187.804 69.3013 187.868 69.376 187.922 69.4613L189.596 71.9253H189.575ZM186.375 68.4267C186.61 68.4267 186.812 68.3947 186.983 68.3413C187.154 68.288 187.303 68.2027 187.41 68.096C187.527 67.9893 187.602 67.872 187.666 67.7333C187.73 67.5947 187.751 67.4347 187.751 67.264C187.751 66.9227 187.644 66.6667 187.42 66.4853C187.196 66.304 186.855 66.208 186.396 66.208H185.607V68.416H186.386L186.375 68.4267Z" />
    <path d="M193.405 71.9253H192.157V65.2587H193.405V71.9253Z" />
    <path d="M201.127 66.2827H199.122V71.936H197.884V66.2827H195.879V65.2587H201.138V66.2827H201.127Z" />
    <path d="M208.71 71.9254H207.75C207.643 71.9254 207.558 71.8934 207.483 71.84C207.419 71.7867 207.366 71.7227 207.334 71.6374L206.832 70.272H204.07L203.568 71.6374C203.547 71.712 203.494 71.776 203.43 71.8293C203.355 71.8827 203.27 71.9147 203.163 71.9147H202.192L204.816 65.248H206.075L208.688 71.9147L208.71 71.9254ZM206.523 69.408L205.712 67.1894C205.67 67.0934 205.627 66.976 205.584 66.8374C205.542 66.6987 205.499 66.56 205.456 66.4C205.414 66.56 205.371 66.6987 205.328 66.8374C205.286 66.976 205.243 67.0934 205.2 67.1894L204.39 69.3974H206.512L206.523 69.408Z" />
    <path d="M219.75 65.2587L217.681 71.9254H216.561L215.099 67.3707C215.057 67.264 215.025 67.1254 214.993 66.9654C214.971 67.04 214.95 67.1147 214.939 67.1787C214.918 67.2427 214.897 67.3067 214.875 67.3707L213.403 71.9254H212.283L210.214 65.2587H211.249C211.355 65.2587 211.441 65.28 211.515 65.3334C211.59 65.3867 211.633 65.4507 211.665 65.536L212.795 69.5254C212.817 69.6214 212.849 69.728 212.87 69.8454C212.891 69.9627 212.913 70.08 212.945 70.208C212.966 70.08 212.998 69.9627 213.03 69.8454C213.062 69.728 213.094 69.6214 213.126 69.5254L214.438 65.536C214.459 65.4614 214.513 65.3973 214.587 65.344C214.662 65.2907 214.747 65.2587 214.854 65.2587H215.217C215.323 65.2587 215.409 65.28 215.483 65.3334C215.547 65.3867 215.601 65.4507 215.633 65.536L216.934 69.5254C216.998 69.7174 217.062 69.9307 217.105 70.1867C217.147 69.9414 217.19 69.728 217.243 69.5254L218.374 65.536C218.395 65.4614 218.438 65.3974 218.513 65.3334C218.587 65.28 218.673 65.248 218.779 65.248H219.75V65.2587Z" />
    <path d="M228.444 68.5973C228.444 69.088 228.359 69.536 228.199 69.952C228.039 70.368 227.804 70.7307 227.516 71.0293C227.228 71.328 226.866 71.5733 226.45 71.744C226.034 71.9147 225.575 72 225.063 72C224.551 72 224.103 71.9147 223.687 71.744C223.271 71.5733 222.919 71.3387 222.62 71.0293C222.322 70.72 222.098 70.368 221.927 69.952C221.767 69.536 221.682 69.0773 221.682 68.5973C221.682 68.1173 221.767 67.6587 221.927 67.2427C222.087 66.8267 222.322 66.464 222.62 66.1653C222.919 65.8667 223.271 65.6213 223.687 65.4507C224.103 65.28 224.562 65.1947 225.063 65.1947C225.404 65.1947 225.724 65.2373 226.012 65.312C226.311 65.3867 226.588 65.504 226.834 65.6427C227.079 65.7813 227.303 65.9627 227.506 66.1653C227.708 66.368 227.868 66.6027 228.007 66.848C228.146 67.0933 228.252 67.3707 228.327 67.6693C228.402 67.968 228.434 68.2773 228.434 68.5973H228.444ZM227.175 68.5973C227.175 68.2347 227.122 67.904 227.026 67.616C226.93 67.328 226.791 67.0827 226.61 66.88C226.428 66.6773 226.204 66.5173 225.948 66.4107C225.692 66.304 225.394 66.2507 225.074 66.2507C224.754 66.2507 224.455 66.304 224.199 66.4107C223.943 66.5173 223.719 66.6773 223.538 66.88C223.356 67.0827 223.218 67.328 223.111 67.616C223.015 67.904 222.962 68.2347 222.962 68.5973C222.962 68.96 223.015 69.2907 223.111 69.5787C223.207 69.8667 223.346 70.112 223.538 70.3147C223.73 70.5173 223.943 70.6667 224.199 70.7733C224.455 70.88 224.754 70.9333 225.074 70.9333C225.394 70.9333 225.692 70.88 225.948 70.7733C226.204 70.6667 226.428 70.5067 226.61 70.3147C226.791 70.112 226.93 69.8667 227.026 69.5787C227.122 69.2907 227.175 68.96 227.175 68.5973Z" />
    <path d="M236.477 71.9253H235.357C235.144 71.9253 234.995 71.84 234.899 71.68L233.501 69.5467C233.448 69.4613 233.395 69.408 233.331 69.376C233.267 69.344 233.171 69.3227 233.053 69.3227H232.52V71.9253H231.283V65.2587H233.32C233.768 65.2587 234.163 65.3013 234.483 65.3973C234.803 65.4933 235.069 65.6213 235.283 65.792C235.485 65.9627 235.645 66.1653 235.741 66.4C235.837 66.6347 235.891 66.8907 235.891 67.1787C235.891 67.4027 235.859 67.616 235.795 67.8187C235.731 68.0213 235.635 68.2027 235.507 68.3627C235.379 68.5227 235.229 68.672 235.048 68.7893C234.867 68.9173 234.653 69.0133 234.419 69.0773C234.504 69.12 234.568 69.1733 234.643 69.2373C234.707 69.3013 234.771 69.376 234.824 69.4613L236.499 71.9253H236.477ZM233.288 68.4267C233.523 68.4267 233.725 68.3947 233.896 68.3413C234.067 68.288 234.216 68.2027 234.323 68.096C234.44 67.9893 234.515 67.872 234.579 67.7333C234.643 67.5947 234.664 67.4347 234.664 67.264C234.664 66.9227 234.557 66.6667 234.333 66.4853C234.109 66.304 233.768 66.208 233.309 66.208H232.52V68.416H233.299L233.288 68.4267Z" />
    <path d="M240.124 68.0533H240.412C240.53 68.0533 240.626 68.032 240.7 68C240.775 67.968 240.839 67.9147 240.903 67.8507L242.738 65.5253C242.812 65.4293 242.898 65.3547 242.983 65.3227C243.068 65.28 243.175 65.2693 243.303 65.2693H244.37L242.119 68.0427C241.991 68.2134 241.852 68.3307 241.703 68.4053C241.799 68.4373 241.895 68.4907 241.98 68.5547C242.066 68.6187 242.14 68.704 242.215 68.8107L244.53 71.936H243.431C243.282 71.936 243.175 71.9147 243.1 71.872C243.026 71.8293 242.972 71.7653 242.919 71.6907L241.031 69.2267C240.978 69.1414 240.903 69.088 240.828 69.056C240.754 69.024 240.636 69.0027 240.498 69.0027H240.103V71.936H238.866V65.2693H240.103V68.064L240.124 68.0533Z" />
    </symbol>


    <!-- ロゴ マーク -->
    <symbol viewBox="0 0 59 56" id="svg_logoMark">
     <path d="M34.8078 26.1685C33.4156 26.1685 32.2921 25.0401 32.2921 23.6527V4.80675C32.2921 4.60159 32.2823 4.4013 32.2628 4.20102C32.2628 4.20102 32.2286 3.84442 32.1455 3.49271C31.9062 2.43269 31.3053 1.53875 31.276 1.49967C30.8803 0.913478 30.387 0.405448 29.8203 0H55.4221C57.083 0 58.4312 1.34824 58.4312 3.0091V23.1642C58.4312 24.8251 57.083 26.1734 55.4221 26.1734H34.8078V26.1685Z" />
    <path d="M5.8842 55.39C4.21356 55.39 2.86044 54.0369 2.86044 52.3662V4.80675C2.86044 4.60159 2.85067 4.4013 2.83113 4.20102C2.83113 4.20102 2.79693 3.84442 2.71389 3.49271C2.47453 2.43269 1.87368 1.53875 1.84438 1.49967C1.4487 0.913478 0.955321 0.405448 0.388672 0H25.9758C27.6465 0 28.9996 1.35312 28.9996 3.02376V52.3662C28.9996 54.0369 27.6465 55.39 25.9758 55.39H5.8842Z" />
    <path d="M35.3158 55.39C33.6451 55.39 32.292 54.0369 32.292 52.3662V26.9891C32.6974 27.5558 33.2006 28.0443 33.7917 28.4448C33.8307 28.4693 34.7296 29.0701 35.7847 29.3143C36.1364 29.3925 36.493 29.4316 36.493 29.4316C36.6933 29.4511 36.8936 29.4609 37.0939 29.4609H55.9105C57.3027 29.4609 58.4263 30.5893 58.4263 31.9766V52.3614C58.4263 54.032 57.0731 55.3851 55.4025 55.3851H35.306L35.3158 55.39Z" />
    </symbol>


    <!-- Youtubeロゴ -->
    <symbol viewBox="0 0 28 20" id="svg_youtube">
      <path d="M27.154 6.55822C27.154 3.35594 24.5291 0.769043 21.2798 0.769043H6.25896C3.00965 0.769043 0.384766 3.35594 0.384766 6.55822V13.4414C0.384766 16.6437 3.00965 19.2306 6.25896 19.2306H21.2798C24.5291 19.2306 27.154 16.6437 27.154 13.4414V6.55822ZM18.3196 10.524L11.5897 13.8061C11.3237 13.9428 10.4333 13.7605 10.4333 13.4642V6.71776C10.4333 6.42146 11.3353 6.22773 11.6012 6.37588L18.0536 9.82887C18.3196 9.97702 18.6086 10.3645 18.3311 10.5126L18.3196 10.524Z" />
    </symbol>
    
    
    <!-- IInsta ロゴ -->
    <symbol viewBox="0 0 24 24" id="svg_insta">
    <path d="M18.3578 4.28687C17.5836 4.28687 16.9546 4.9159 16.9546 5.69009C16.9546 6.46428 17.5836 7.09332 18.3578 7.09332C19.132 7.09332 19.761 6.46428 19.761 5.69009C19.761 4.9159 19.132 4.28687 18.3578 4.28687Z" />
    <path d="M12.0965 6.08691C8.8352 6.08691 6.18359 8.73853 6.18359 11.9998C6.18359 15.2611 8.8352 17.9127 12.0965 17.9127C15.3578 17.9127 18.0094 15.2611 18.0094 11.9998C18.0094 8.73853 15.3578 6.08691 12.0965 6.08691ZM12.0965 15.7837C10.0062 15.7837 8.31262 14.0805 8.31262 11.9998C8.31262 9.91917 10.0158 8.21595 12.0965 8.21595C14.1771 8.21595 15.8804 9.91917 15.8804 11.9998C15.8804 14.0805 14.1771 15.7837 12.0965 15.7837Z" />
    <path d="M16.7903 24H7.20967C3.23225 24 0 20.7677 0 16.7903V7.20968C0 3.23226 3.23225 0 7.20967 0H16.7903C20.7677 0 24 3.23226 24 7.20968V16.7903C24 20.7677 20.7677 24 16.7903 24ZM7.20967 2.25484C4.48064 2.25484 2.25484 4.48065 2.25484 7.20968V16.7903C2.25484 19.5194 4.48064 21.7452 7.20967 21.7452H16.7903C19.5193 21.7452 21.7451 19.5194 21.7451 16.7903V7.20968C21.7451 4.48065 19.5193 2.25484 16.7903 2.25484H7.20967Z" />
    </symbol>
    
    <!-- page top アイコン -->
    <symbol viewBox="0 0 36 36" id="svg_pageTop">
    <path class="cls-1" d="M18,0C8.06,0,0,8.06,0,18s8.06,18,18,18,18-8.06,18-18S27.94,0,18,0ZM24,16.59c-.39.39-1.02.39-1.41,0l-3.59-3.59v12.41c0,.55-.45,1-1,1s-1-.45-1-1v-12.41l-3.59,3.59c-.39.39-1.02.39-1.41,0-.39-.39-.39-1.02,0-1.41l5.29-5.29c.39-.39,1.02-.39,1.41,0l5.29,5.29c.39.39.39,1.02,0,1.41Z"/>
    </symbol>
    
</svg>
